<svg xmlns="http://www.w3.org/2000/svg" fill="none" viewBox="96.21 0.22 72.14 72.14">
  <path d="M 132.281 0.218 C 125.147 0.218 118.174 2.333 112.242 6.297 C 106.311 10.26 101.688 15.893 98.958 22.483 C 96.228 29.074 95.514 36.326 96.906 43.322 C 98.297 50.319 101.733 56.745 106.777 61.79 C 111.821 66.834 118.248 70.269 125.244 71.661 C 132.241 73.052 139.493 72.338 146.083 69.608 C 152.674 66.878 158.307 62.255 162.27 56.324 C 166.233 50.393 168.348 43.419 168.348 36.286 L 150.314 36.286 C 150.314 39.853 149.257 43.339 147.275 46.305 C 145.294 49.271 142.477 51.582 139.182 52.947 C 135.887 54.312 132.261 54.669 128.762 53.973 C 125.264 53.277 122.051 51.56 119.529 49.038 C 117.007 46.516 115.289 43.302 114.593 39.804 C 113.897 36.306 114.254 32.68 115.619 29.385 C 116.984 26.089 119.296 23.273 122.261 21.291 C 125.227 19.31 128.714 18.252 132.281 18.252 L 132.281 0.218 Z" fill="white"/>
  <path d="M 132.281 0.218 C 127.544 0.218 122.854 1.151 118.478 2.964 C 114.102 4.776 110.126 7.433 106.777 10.782 C 103.428 14.131 100.771 18.107 98.958 22.483 C 97.146 26.859 96.213 31.549 96.213 36.286 L 114.247 36.286 C 114.247 33.918 114.713 31.573 115.619 29.385 C 116.526 27.197 117.854 25.209 119.529 23.534 C 121.203 21.859 123.191 20.531 125.379 19.625 C 127.567 18.718 129.912 18.252 132.281 18.252 L 132.281 0.218 Z" fill="#5CE1E6"/>
  <circle cx="132.281" cy="36.286" r="11.271" fill="#5CE1E6"/>
  <path d="M 143.552 36.286 C 143.552 34.806 143.26 33.34 142.694 31.973 C 142.127 30.605 141.297 29.363 140.25 28.316 C 139.204 27.269 137.961 26.439 136.594 25.873 C 135.226 25.306 133.761 25.015 132.281 25.015 C 130.8 25.015 129.335 25.306 127.967 25.873 C 126.6 26.439 125.357 27.269 124.311 28.316 C 123.264 29.363 122.434 30.605 121.867 31.973 C 121.301 33.34 121.009 34.806 121.009 36.286 L 132.281 36.286 L 143.552 36.286 Z" fill="white"/>
</svg>